# Solid triangular wedge ramp
o ramp
v -0.375000 0.000000 0.300000
v 0.375000 0.000000 0.300000
v -0.375000 2.450000 0.000000
v 0.375000 2.450000 0.000000
v -0.375000 0.000000 0.000000
v 0.375000 0.000000 0.000000
vn 0.000000 0.121541 0.992586
vn 0.000000 0.000000 -1.000000
vn 0.000000 -1.000000 0.000000
vn -1.000000 0.000000 0.000000
vn 1.000000 0.000000 0.000000
usemtl ramp_mat
s 1
f 1//1 2//1 4//1
f 1//1 4//1 3//1
f 5//2 4//2 6//2
f 5//2 3//2 4//2
f 5//3 6//3 2//3
f 5//3 2//3 1//3
f 5//4 1//4 3//4
f 6//5 4//5 2//5
